<svg id="Layer_1" data-name="Layer 1" xmlns="http://www.w3.org/2000/svg" viewBox="0 0 85.28 85.28"><defs><style>.cls-1{fill:#fff;}.cls-2{fill:#6a3e98;}.cls-3{fill:#7e59a5;}.cls-4{fill:#1e803f;}</style></defs><rect class="cls-1" width="85.28" height="85.28" rx="4"/><path class="cls-2" d="M121.64,31.81l-13.6-1,2.11-12.7,38.33,2.8L147.12,33.4l-12.63-.68-3.17,34.09L115.6,65.37Z" transform="translate(-105 -1.43)"/><path class="cls-3" d="M137.06,45.72c-.67-11.84.59-11.9,11.41-10.73l1.29-12.1C162.86,17.17,178,26,179.61,39.67,183.44,67.66,141.14,73.45,137.06,45.72Zm29.25-4.16c-1.45-11.45-17.83-8.88-15.95,2.42C151.64,55.53,168.41,53,166.31,41.56Z" transform="translate(-105 -1.43)"/><path class="cls-4" d="M178.1,59.87c-.27-7,10.48-7.09,10.17,0C188.65,66.85,177.79,67,178.1,59.87Z" transform="translate(-105 -1.43)"/></svg>